<svg width="1440" height="779" viewBox="0 0 1440 779" fill="none" xmlns="http://www.w3.org/2000/svg">
<g clip-path="url(#clip0_4_3758)">
<rect width="1440" height="779" fill="white"/>
<path d="M1440 0H0V779H1440V0Z" fill="white"/>
<path d="M0 495.963H40C80 495.963 160 495.963 240 489.731C320 483.37 400 470.906 480 461.817C560 452.729 640 447.016 720 453.118C800 459.221 880 476.878 960 491.809C1040 506.74 1120 518.944 1200 513.88C1280 508.947 1360 486.875 1400 475.839L1440 464.803V780.298H1400C1360 780.298 1280 780.298 1200 780.298C1120 780.298 1040 780.298 960 780.298C880 780.298 800 780.298 720 780.298C640 780.298 560 780.298 480 780.298C400 780.298 320 780.298 240 780.298C160 780.298 80 780.298 40 780.298H0V495.963Z" fill="#C1DCF8"/>
<path d="M0 563.477L40 560.231C80 556.985 160 550.493 240 553.739C320 556.985 400 569.968 480 572.175C560 574.253 640 565.684 720 558.932C800 552.181 880 547.507 960 543.093C1040 538.808 1120 534.913 1200 540.366C1280 545.689 1360 560.49 1400 567.761L1440 575.162V780.298H1400C1360 780.298 1280 780.298 1200 780.298C1120 780.298 1040 780.298 960 780.298C880 780.298 800 780.298 720 780.298C640 780.298 560 780.298 480 780.298C400 780.298 320 780.298 240 780.298C160 780.298 80 780.298 40 780.298H0V563.477Z" fill="#9BC5F3"/>
<path d="M0 594.637L40 593.598C80 592.43 160 590.352 240 590.742C320 591.131 400 594.247 480 595.935C560 597.623 640 598.142 720 610.606C800 623.2 880 647.868 960 655.658C1040 663.448 1120 654.36 1200 651.504C1280 648.777 1360 652.153 1400 653.971L1440 655.658V780.298H1400C1360 780.298 1280 780.298 1200 780.298C1120 780.298 1040 780.298 960 780.298C880 780.298 800 780.298 720 780.298C640 780.298 560 780.298 480 780.298C400 780.298 320 780.298 240 780.298C160 780.298 80 780.298 40 780.298H0V594.637Z" fill="#73AEEE"/>
<path d="M0 693.31L40 697.854C80 702.398 160 711.487 240 715.122C320 718.887 400 717.07 480 718.238C560 719.277 640 723.172 720 724.73C800 726.158 880 725.379 960 718.368C1040 711.487 1120 698.503 1200 698.503C1280 698.503 1360 711.487 1400 717.978L1440 724.47V780.298H1400C1360 780.298 1280 780.298 1200 780.298C1120 780.298 1040 780.298 960 780.298C880 780.298 800 780.298 720 780.298C640 780.298 560 780.298 480 780.298C400 780.298 320 780.298 240 780.298C160 780.298 80 780.298 40 780.298H0V693.31Z" fill="#4597E9"/>
</g>
<defs>
<clipPath id="clip0_4_3758">
<rect width="1440" height="779" fill="white"/>
</clipPath>
</defs>
</svg>
